<svg width="500" height="500" viewBox="0 0 500 500" fill="none" xmlns="http://www.w3.org/2000/svg">
<rect width="500" height="500" fill="#B2FCE4"/>
<path d="M376.345 171.08L290.186 119.402C264.896 104.233 233.283 123.189 233.283 153.549V158.851C233.283 163.64 235.747 168.073 239.734 170.456L256.001 180.213C260.78 183.086 266.739 179.5 266.739 173.775V160.588C266.739 153.995 273.597 149.874 279.084 153.171L353.712 197.943C359.199 201.24 359.199 209.482 353.712 212.756L279.084 257.529C273.597 260.826 266.739 256.705 266.739 250.111V243.095C266.739 212.734 235.126 193.756 209.814 208.947L123.655 260.625C98.3649 275.794 98.3649 313.751 123.655 328.92L209.814 380.598C235.104 395.767 266.739 376.811 266.739 346.451V341.149C266.739 336.36 264.274 331.95 260.288 329.544L244.02 319.765C239.241 316.892 233.283 320.478 233.283 326.203V339.389C233.283 345.983 226.424 350.104 220.937 346.807L146.309 302.034C140.823 298.738 140.823 290.496 146.309 287.199L220.937 242.427C226.424 239.13 233.283 243.251 233.283 249.844V256.861C233.283 287.221 264.896 306.2 290.186 291.008L376.345 239.33C401.635 224.206 401.635 186.249 376.345 171.08Z" fill="black"/>
</svg>
