<svg width="500" height="500" viewBox="0 0 500 500" fill="none" xmlns="http://www.w3.org/2000/svg">
<rect width="500" height="500" fill="#FA4D16"/>
<path fill-rule="evenodd" clip-rule="evenodd" d="M190.399 149.052C190.399 147.751 191.821 146.923 192.947 147.574L368.302 248.64C369.428 249.29 369.428 250.946 368.302 251.597L192.947 352.663C192.687 352.81 192.394 352.886 192.096 352.884C191.798 352.883 191.505 352.803 191.248 352.654C190.99 352.504 190.776 352.29 190.627 352.032C190.478 351.774 190.4 351.482 190.399 351.184V149.052ZM222.775 134.83C221.412 134.031 221.975 131.932 223.545 131.932H315.725C317.384 131.932 318.924 132.819 319.754 134.268L365.548 213.808C366.347 215.168 364.807 216.706 363.415 215.907L222.745 134.83H222.775ZM164.422 330.752C164.422 332.349 162.319 332.911 161.519 331.521L115.903 252.306C115.073 250.887 115.073 249.113 115.903 247.664L161.519 168.449C162.319 167.089 164.422 167.621 164.422 169.218V330.723V330.752ZM365.4 286.517C366.199 285.157 364.659 283.62 363.267 284.418L223.101 365.2C221.738 365.998 222.301 368.098 223.871 368.098H315.696C317.354 368.098 318.895 367.211 319.724 365.762L365.37 286.547L365.4 286.517ZM411.934 257.717C414.689 252.927 414.689 247.073 411.934 242.283L337.911 113.777C336.55 111.417 334.591 109.456 332.23 108.091C329.87 106.726 327.191 106.005 324.463 106H176.537C170.997 106 165.843 108.957 163.089 113.777L89.0661 242.283C86.3113 247.073 86.3113 252.927 89.0661 257.717L163.089 386.223C164.45 388.583 166.409 390.544 168.77 391.909C171.13 393.274 173.809 393.995 176.537 394H324.463C330.003 394 335.157 391.043 337.911 386.223L411.934 257.717Z" fill="white"/>
</svg>
