<svg width="500" height="500" viewBox="0 0 500 500" fill="none" xmlns="http://www.w3.org/2000/svg">
<rect width="500" height="500" fill="#FBFBFB"/>
<g clip-path="url(#clip0_1_64)">
<path d="M168.182 100H113.636C106.105 100 100 106.105 100 113.636V168.182C100 175.713 106.105 181.818 113.636 181.818H168.182C175.713 181.818 181.818 175.713 181.818 168.182V113.636C181.818 106.105 175.713 100 168.182 100Z" fill="black"/>
<path d="M277.273 100H222.727C215.196 100 209.091 106.105 209.091 113.636V168.182C209.091 175.713 215.196 181.818 222.727 181.818H277.273C284.804 181.818 290.909 175.713 290.909 168.182V113.636C290.909 106.105 284.804 100 277.273 100Z" fill="black"/>
<path d="M386.364 100H331.818C324.287 100 318.182 106.105 318.182 113.636V168.182C318.182 175.713 324.287 181.818 331.818 181.818H386.364C393.895 181.818 400 175.713 400 168.182V113.636C400 106.105 393.895 100 386.364 100Z" fill="black"/>
<path d="M168.182 209.091H113.636C106.105 209.091 100 215.196 100 222.727V277.273C100 284.804 106.105 290.909 113.636 290.909H168.182C175.713 290.909 181.818 284.804 181.818 277.273V222.727C181.818 215.196 175.713 209.091 168.182 209.091Z" fill="black"/>
<path d="M277.273 209.091H222.727C215.196 209.091 209.091 215.196 209.091 222.727V277.273C209.091 284.804 215.196 290.909 222.727 290.909H277.273C284.804 290.909 290.909 284.804 290.909 277.273V222.727C290.909 215.196 284.804 209.091 277.273 209.091Z" fill="black"/>
<path d="M386.364 209.091H331.818C324.287 209.091 318.182 215.196 318.182 222.727V277.273C318.182 284.804 324.287 290.909 331.818 290.909H386.364C393.895 290.909 400 284.804 400 277.273V222.727C400 215.196 393.895 209.091 386.364 209.091Z" fill="black"/>
<path d="M168.182 318.182H113.636C106.105 318.182 100 324.287 100 331.818V386.364C100 393.895 106.105 400 113.636 400H168.182C175.713 400 181.818 393.895 181.818 386.364V331.818C181.818 324.287 175.713 318.182 168.182 318.182Z" fill="black"/>
<path d="M277.273 318.182H222.727C215.196 318.182 209.091 324.287 209.091 331.818V386.364C209.091 393.895 215.196 400 222.727 400H277.273C284.804 400 290.909 393.895 290.909 386.364V331.818C290.909 324.287 284.804 318.182 277.273 318.182Z" fill="black"/>
<path d="M386.364 318.182H331.818C324.287 318.182 318.182 324.287 318.182 331.818V386.364C318.182 393.895 324.287 400 331.818 400H386.364C393.895 400 400 393.895 400 386.364V331.818C400 324.287 393.895 318.182 386.364 318.182Z" fill="black"/>
</g>
<defs>
<clipPath id="clip0_1_64">
<rect width="300" height="300" fill="white" transform="translate(100 100)"/>
</clipPath>
</defs>
</svg>
